# Blender v2.74 (sub 0) OBJ File: 'car.blend'
# www.blender.org
mtllib car.mtl
o Icosphere
v -1.000000 -0.500000 0.000000
v 3.223600 -0.447215 0.525720
v -1.711955 -0.447215 0.850640
v -1.697135 -0.447215 -0.850640
v 3.223600 -0.447215 -0.525720
v 2.276385 0.447215 0.850640
v -1.723600 0.447215 0.525720
v -1.723600 0.447215 -0.525720
v 2.276385 0.447215 -0.850640
v 3.904425 0.447215 0.000000
v 0.000000 1.000000 0.000000
vt 0.701661 0.237560
vt 0.452112 0.237556
vt 0.624542 0.474893
vt 0.624547 0.000225
vt 0.903550 0.090880
vt 0.499780 0.565998
vt 0.499780 0.859357
vt 0.250227 0.712677
vt 0.750227 0.600117
vt 0.999775 0.475343
vt 0.999775 0.754351
vt 0.249777 0.475343
vt 0.000225 0.565998
vt 0.000225 0.859357
vt 0.749777 0.475343
vt 0.500229 0.600117
vt 0.749777 0.754351
vt 0.250227 0.475343
vt 0.750227 0.879125
vt 0.500229 0.879125
vt 0.250227 0.950012
vt 0.451663 0.090880
vt 0.451663 0.384244
vt 0.249773 0.237560
vt 0.172660 0.000225
vt 0.000225 0.237556
vt 0.172655 0.474893
vn 0.004300 -0.997800 0.065500
vn 0.012500 -0.999900 0.000000
vn 0.004300 -0.997800 -0.065500
vn 0.795700 -0.605700 0.000000
vn 0.063000 -0.281100 0.957600
vn -0.897900 -0.440200 -0.004900
vn 0.063200 -0.280900 -0.957600
vn 0.456700 0.166100 0.874000
vn -0.076200 0.339600 0.937500
vn -0.076200 0.338500 -0.937900
vn 0.456700 0.166100 -0.874000
vn 0.135400 0.956300 0.259100
vn -0.051800 0.768300 0.638000
vn -0.305400 0.952200 0.000000
vn -0.051800 0.768300 -0.638000
vn 0.135400 0.956300 -0.259100
usemtl Material
s off
f 1/1/1 2/2/1 3/3/1
f 2/2/2 1/1/2 5/4/2
f 1/1/3 4/5/3 5/4/3
f 2/6/4 5/7/4 10/8/4
f 3/9/5 2/10/5 6/11/5
f 4/5/6 1/1/6 3/12/6 7/13/6 8/14/6
f 5/15/7 4/16/7 9/17/7
f 2/6/8 10/8/8 6/18/8
f 3/9/9 6/11/9 7/19/9
f 4/16/10 8/20/10 9/17/10
f 5/7/11 9/21/11 10/8/11
f 6/22/12 10/23/12 11/24/12
f 7/25/13 6/22/13 11/24/13
f 8/26/14 7/25/14 11/24/14
f 9/27/15 8/26/15 11/24/15
f 10/23/16 9/27/16 11/24/16
